<svg xmlns="http://www.w3.org/2000/svg" width="256" height="256" viewBox="0 0 256 256">
  <defs>
    <!-- Cyan metallic -->
    <linearGradient id="cyanMetal" x1="0%" y1="0%" x2="100%" y2="100%">
      <stop offset="0%"  stop-color="#8FE8FF"/>
      <stop offset="45%" stop-color="#23B6E6"/>
      <stop offset="55%" stop-color="#0EA5C0"/>
      <stop offset="100%" stop-color="#79E1FF"/>
    </linearGradient>
    <!-- Gold metallic -->
    <linearGradient id="goldMetal" x1="0%" y1="0%" x2="100%" y2="100%">
      <stop offset="0%"  stop-color="#FFE7A3"/>
      <stop offset="45%" stop-color="#F2C458"/>
      <stop offset="55%" stop-color="#C9961C"/>
      <stop offset="100%" stop-color="#FFD37A"/>
    </linearGradient>
    <!-- Soft shadow for subtle depth -->
    <filter id="shadow" x="-40%" y="-40%" width="180%" height="180%">
      <feDropShadow dx="0" dy="2" stdDeviation="2" flood-opacity="0.25"/>
    </filter>
    <!-- Gentle highlight -->
    <filter id="glow" x="-30%" y="-30%" width="160%" height="160%">
      <feGaussianBlur stdDeviation="1.5" result="b"/>
      <feMerge>
        <feMergeNode in="b"/>
        <feMergeNode in="SourceGraphic"/>
      </feMerge>
    </filter>
  </defs>
  <!-- Transparent background - removed the white rect -->
  <!-- Infinity symbol -->
  <!-- Left loop (cyan) -->
  <path d="
    M 64,128
    C 64,92 92,64 128,64
    C 144,64 160,70 172,80
    C 160,70 144,64 128,64
    C 92,64 64,92 64,128
    C 64,164 92,192 128,192
    C 144,192 160,186 172,176"
    fill="none" stroke="url(#cyanMetal)" stroke-width="22" stroke-linecap="round"
    filter="url(#shadow)"/>
  <!-- Right loop (gold) -->
  <path d="
    M 192,128
    C 192,164 164,192 128,192
    C 112,192 96,186 84,176
    C 96,186 112,192 128,192
    C 164,192 192,164 192,128
    C 192,92 164,64 128,64
    C 112,64 96,70 84,80"
    fill="none" stroke="url(#goldMetal)" stroke-width="22" stroke-linecap="round"
    filter="url(#shadow)"/>
  <!-- Subtle reflection for realism -->
  <path d="M82,88 C95,74 112,68 128,70" fill="none" stroke="#FFFFFF" stroke-opacity="0.35" stroke-width="4" stroke-linecap="round"/>
  <path d="M174,168 C161,182 144,188 128,186" fill="none" stroke="#FFFFFF" stroke-opacity="0.25" stroke-width="4" stroke-linecap="round"/>
</svg>
